<svg xmlns="http://www.w3.org/2000/svg" viewBox="0 0 760 220" role="img" aria-labelledby="title desc">
  <title id="title">CareLink Multispecialty Clinic</title>
  <desc id="desc">CareLink logo with linked geometric mark and clinic wordmark.</desc>
  <defs>
    <linearGradient id="gold" x1="0" x2="1" y1="0" y2="1">
      <stop offset="0" stop-color="#f4df88"/>
      <stop offset="0.48" stop-color="#c99b2e"/>
      <stop offset="1" stop-color="#f6e7a2"/>
    </linearGradient>
  </defs>
  <g fill="none" stroke-linecap="round" stroke-linejoin="round">
    <rect x="44" y="82" width="86" height="86" rx="18" transform="rotate(-45 87 125)" stroke="#050505" stroke-width="16"/>
    <rect x="96" y="30" width="86" height="86" rx="18" transform="rotate(-45 139 73)" stroke="#050505" stroke-width="16"/>
    <rect x="148" y="134" width="86" height="86" rx="18" transform="rotate(-45 191 177)" stroke="#050505" stroke-width="16"/>
    <path d="M207 74 145 12a27 27 0 0 0-38 0L34 85a27 27 0 0 0 0 38l96 96a27 27 0 0 0 38 0l59-59" stroke="url(#gold)" stroke-width="18"/>
  </g>
  <text x="286" y="98" fill="url(#gold)" font-family="Arial, Helvetica, sans-serif" font-size="58" font-weight="700" letter-spacing="12">CARELINK</text>
  <text x="291" y="148" fill="#080808" font-family="Arial, Helvetica, sans-serif" font-size="34" font-weight="400" letter-spacing="4">MULTISPECIALTY CLINIC</text>
</svg>
